<?xml version="1.0" standalone="no"?>
<!DOCTYPE svg PUBLIC "-//W3C//DTD SVG 20010904//EN"
 "http://www.w3.org/TR/2001/REC-SVG-20010904/DTD/svg10.dtd">
<svg version="1.0" xmlns="http://www.w3.org/2000/svg"
 width="283.000000pt" height="282.000000pt" viewBox="0 0 283.000000 282.000000"
 preserveAspectRatio="xMidYMid meet">

<g transform="translate(0.000000,282.000000) scale(0.100000,-0.100000)"
fill="#000000" stroke="none">
<path d="M759 2430 c-32 -51 -42 -90 -31 -115 8 -18 8 -24 -3 -29 -8 -2 -19
-15 -26 -28 -11 -21 -9 -21 18 5 18 17 40 27 59 27 20 0 41 11 67 36 20 20 37
40 37 45 0 9 -32 -1 -80 -26 -38 -20 -43 -19 -30 5 6 12 10 40 8 63 l-3 41
-16 -24z"/>
<path d="M2050 2418 c0 -20 4 -48 10 -62 9 -25 -2 -37 -14 -17 -8 13 -96 42
-96 32 0 -20 81 -81 107 -81 16 0 39 -12 56 -27 27 -26 29 -26 18 -5 -7 13
-19 26 -26 29 -11 4 -12 10 -4 25 14 25 -1 80 -31 118 l-20 25 0 -37z"/>
<path d="M662 2335 c-23 -48 -28 -95 -12 -111 7 -7 1 -21 -18 -43 l-27 -33 3
62 c5 81 -10 97 -32 34 -9 -26 -16 -59 -16 -74 0 -35 38 -70 76 -70 29 0 104
43 104 59 0 10 -68 -2 -97 -17 -34 -19 -36 -14 -8 22 23 30 31 34 59 29 38 -6
137 38 102 45 -22 5 -74 -2 -98 -12 -14 -7 -16 -3 -13 26 3 18 7 45 10 59 3
14 2 35 -2 47 -8 21 -10 19 -31 -23z"/>
<path d="M2143 2302 c4 -73 2 -82 -12 -76 -23 10 -76 17 -97 12 -35 -8 64 -51
102 -45 29 5 37 1 58 -26 30 -38 27 -43 -13 -23 -16 9 -44 16 -62 16 -26 0
-29 -2 -20 -14 24 -29 92 -55 117 -46 21 8 26 5 44 -30 23 -45 20 -48 -18 -20
-15 11 -43 23 -62 26 l-35 7 30 -32 c38 -42 63 -55 96 -53 23 2 29 -4 43 -38
22 -55 21 -56 -19 -21 -33 29 -80 49 -91 39 -2 -3 13 -24 33 -47 29 -33 46
-44 72 -46 31 -2 36 -6 47 -46 7 -24 12 -45 10 -46 -2 -2 -15 12 -29 30 -23
30 -93 75 -102 65 -2 -2 13 -28 33 -57 26 -39 47 -58 72 -66 31 -10 36 -16 41
-54 l6 -43 -35 41 c-31 38 -92 81 -92 65 0 -3 14 -33 31 -65 25 -46 39 -61 65
-69 32 -11 34 -14 34 -56 0 -24 -2 -44 -5 -44 -2 0 -13 17 -24 38 -19 36 -77
100 -85 91 -2 -2 5 -31 16 -64 18 -57 55 -105 81 -105 8 0 11 -16 9 -50 -4
-49 -22 -72 -22 -27 0 24 -49 109 -71 122 -9 6 -11 -5 -5 -49 8 -69 30 -116
58 -124 17 -4 19 -10 14 -45 -9 -54 -25 -83 -26 -45 0 36 -37 133 -56 149 -15
12 -16 4 -13 -75 4 -84 5 -89 34 -112 l29 -23 -24 -48 -24 -48 -7 60 c-3 33
-14 78 -24 100 -17 39 -18 39 -25 15 -5 -14 -8 -56 -9 -93 -1 -60 2 -71 24
-93 l25 -25 -30 -45 c-17 -24 -33 -44 -35 -44 -2 0 1 17 7 37 11 40 -6 173
-22 173 -13 0 -49 -153 -43 -182 3 -15 11 -33 19 -39 22 -18 17 -32 -26 -74
-45 -44 -46 -44 -25 15 16 47 21 170 6 170 -15 0 -64 -111 -69 -157 -3 -29 1
-50 11 -67 9 -13 13 -26 10 -30 -10 -10 -1291 -7 -1298 3 -3 5 0 13 5 16 25
15 29 54 13 107 -20 70 -51 130 -63 123 -15 -9 -12 -105 5 -160 8 -27 13 -51
11 -52 -5 -5 -76 76 -76 86 0 5 6 14 14 20 27 23 29 68 5 146 -12 41 -25 75
-30 75 -12 0 -25 -121 -18 -165 4 -22 6 -41 4 -43 -2 -2 -17 17 -35 43 l-31
46 21 17 c29 23 40 83 29 151 -5 31 -9 58 -9 61 -1 3 -10 -13 -22 -35 -12 -22
-24 -67 -28 -100 l-7 -60 -22 48 -22 48 30 28 c30 28 31 32 31 113 l0 83 -20
-25 c-20 -26 -49 -107 -51 -144 -1 -13 -6 -6 -14 19 -19 56 -18 72 4 78 10 2
26 15 34 28 17 27 38 149 25 149 -15 0 -67 -82 -74 -116 -8 -46 -24 -33 -24
19 1 36 5 45 33 62 25 15 37 35 54 85 12 36 20 67 17 69 -8 8 -55 -43 -81 -86
-14 -24 -27 -43 -29 -43 -2 0 -4 19 -4 43 0 40 2 44 35 56 28 10 42 24 65 71
17 33 30 62 30 65 0 16 -65 -32 -88 -65 -15 -22 -30 -39 -33 -40 -3 0 -3 19 0
41 5 36 10 43 41 53 24 8 46 27 72 65 21 30 36 56 34 58 -8 8 -51 -20 -95 -61
-29 -27 -41 -34 -36 -21 4 11 11 34 16 51 8 26 13 30 34 26 20 -3 35 5 72 42
25 25 43 49 40 52 -10 11 -70 -15 -99 -43 -32 -31 -34 -28 -12 27 15 38 19 40
45 35 24 -6 35 0 76 40 l48 47 -35 -6 c-19 -4 -47 -15 -62 -26 -39 -29 -43
-25 -19 16 27 46 21 56 -8 12 l-21 -33 -1 40 c-1 48 -23 114 -32 98 -4 -6 -10
-39 -14 -72 -5 -50 -3 -65 12 -80 14 -17 15 -25 5 -55 -16 -48 -25 -51 -27 -8
-1 20 -10 54 -20 76 -17 37 -18 38 -24 15 -4 -13 -7 -47 -8 -76 -1 -44 3 -55
22 -70 21 -15 23 -21 14 -55 -5 -21 -12 -38 -16 -38 -4 0 -12 19 -18 43 -7 24
-21 54 -32 68 l-20 24 -1 -58 c0 -61 18 -110 45 -120 15 -6 20 -42 9 -71 -4
-11 -13 -2 -30 33 -14 26 -34 57 -46 67 l-21 19 7 -54 c10 -78 29 -117 60
-125 23 -6 26 -11 26 -51 0 -25 -2 -45 -4 -45 -2 0 -16 20 -31 44 -15 25 -41
54 -58 66 l-29 22 7 -33 c13 -64 48 -123 82 -138 22 -10 33 -22 33 -35 0 -12
3 -32 7 -46 5 -21 -1 -18 -34 20 -45 49 -103 89 -103 69 0 -6 14 -37 30 -68
29 -54 71 -91 102 -91 8 0 20 -17 26 -39 18 -57 15 -58 -26 -19 -34 34 -109
75 -118 65 -7 -7 84 -125 105 -136 11 -6 31 -11 46 -11 20 0 29 -8 41 -35 18
-45 18 -52 -4 -32 -25 22 -130 69 -144 65 -7 -3 17 -34 54 -73 63 -64 69 -68
103 -62 33 5 37 3 59 -31 13 -20 23 -38 21 -40 -1 -1 -22 6 -46 17 -24 10 -66
22 -93 25 l-49 5 26 -27 c14 -15 51 -42 81 -61 50 -30 59 -32 88 -22 30 11 34
9 68 -25 l35 -36 -30 7 c-63 15 -121 21 -150 15 -30 -6 -29 -6 35 -44 75 -44
117 -54 160 -36 23 10 34 10 43 1 8 -8 5 -11 -14 -11 -46 0 -54 -14 -59 -100
l-5 -80 55 0 c34 0 72 -8 100 -21 44 -20 62 -21 575 -21 492 -1 533 0 565 17
19 10 65 20 102 23 l68 5 0 59 c0 84 -20 118 -69 118 -19 0 -22 3 -14 11 9 9
20 9 43 -1 43 -18 91 -7 162 36 l62 38 -29 8 c-18 4 -57 2 -99 -7 -38 -8 -71
-13 -73 -12 -1 2 12 18 30 35 30 29 36 31 64 21 25 -8 38 -7 65 7 38 19 127
86 128 95 0 12 -95 -3 -139 -22 -24 -11 -45 -19 -47 -19 -3 0 8 18 22 40 25
37 29 40 61 34 32 -6 38 -2 100 60 37 36 64 68 62 71 -10 9 -75 -15 -122 -45
-26 -16 -47 -28 -47 -26 0 2 7 20 15 40 13 29 20 36 44 36 15 0 40 9 54 20 31
25 101 119 94 126 -9 9 -90 -36 -126 -70 -27 -25 -32 -27 -28 -11 3 11 9 32
13 47 5 21 14 29 40 34 21 4 42 17 53 33 25 35 61 107 61 122 0 18 -50 -17
-99 -69 -24 -26 -41 -39 -37 -29 3 10 6 31 6 47 0 23 6 30 34 40 27 9 38 21
55 60 12 28 24 64 28 82 l6 31 -25 -19 c-15 -10 -41 -40 -59 -66 -17 -27 -33
-48 -35 -48 -1 0 -1 12 1 28 2 15 4 35 4 45 1 10 12 22 25 27 13 5 27 13 30
19 12 19 34 151 25 151 -12 0 -55 -60 -71 -100 l-15 -35 -7 38 c-6 34 -4 41
23 66 24 22 31 38 32 68 0 21 2 50 3 66 1 15 -2 27 -6 27 -13 0 -47 -62 -54
-97 -8 -43 -20 -42 -29 3 -5 29 -2 41 14 58 22 23 28 92 14 145 -6 23 -6 23
-24 -10 -10 -19 -18 -51 -19 -71 0 -48 -15 -49 -30 -2 -10 29 -9 38 3 52 8 9
16 24 18 32 4 23 -12 130 -19 130 -11 0 -32 -75 -32 -112 l0 -33 -22 34 c-17
27 -19 37 -10 52 17 27 14 78 -7 124 l-18 40 -8 -28 c-4 -16 -5 -49 -2 -75 l5
-47 -28 33 c-27 32 -27 35 -13 61 15 25 14 30 -16 86 l-31 60 3 -83z m-1176
-1544 c-2 -7 -15 -12 -28 -10 -24 3 -24 3 4 -19 32 -25 35 -54 7 -69 -25 -13
-60 -4 -60 16 0 10 7 13 25 8 14 -3 25 -2 25 4 0 5 -9 12 -20 15 -26 7 -36 33
-20 52 15 19 74 21 67 3z m187 -2 c-3 -8 -14 -11 -28 -9 -18 4 -24 0 -28 -19
-7 -36 1 -48 33 -48 36 0 38 -16 3 -24 -58 -15 -97 51 -57 96 19 22 85 26 77
4z m126 -6 c0 -13 7 -20 20 -20 13 0 20 7 20 20 0 11 7 20 15 20 12 0 15 -13
15 -60 0 -47 -3 -60 -15 -60 -9 0 -15 9 -15 25 0 18 -5 25 -20 25 -15 0 -20
-7 -20 -26 0 -16 -5 -24 -12 -22 -8 3 -14 27 -16 61 -2 46 0 57 13 57 8 0 15
-9 15 -20z m278 -13 c12 -24 11 -31 -2 -52 -47 -71 -136 -10 -95 66 17 32 80
23 97 -14z m210 1 c27 -58 -29 -109 -83 -74 -27 18 -33 53 -14 87 16 31 80 23
97 -13z m140 -13 c-3 -38 0 -45 17 -47 32 -5 18 -23 -17 -23 l-33 0 -3 58 c-3
53 -1 57 19 57 19 0 21 -5 17 -45z"/>
<path d="M1484 736 c-10 -27 1 -51 24 -54 21 -3 23 0 20 30 -3 35 -33 52 -44
24z"/>
<path d="M1695 740 c-13 -21 4 -60 26 -60 17 0 20 5 17 32 -3 33 -29 50 -43
28z"/>
<path d="M1104 2152 c-166 -81 -303 -151 -304 -156 -1 -5 55 -39 124 -76 l126
-68 0 33 c0 31 4 35 48 49 183 61 451 61 634 0 43 -14 48 -19 48 -45 0 -16 3
-29 6 -29 8 0 264 134 261 136 -7 7 -628 304 -634 303 -5 0 -144 -67 -309
-147z"/>
<path d="M1266 1939 c-32 -5 -85 -16 -117 -25 l-59 -17 0 -59 c0 -58 1 -60 23
-54 137 39 145 41 302 41 157 0 165 -2 303 -41 21 -6 22 -4 22 54 l0 59 -57
16 c-125 35 -286 45 -417 26z"/>
<path d="M1245 1714 c-33 -8 -81 -17 -107 -20 -53 -7 -58 -15 -58 -109 0 -83
8 -105 35 -105 12 0 57 -10 101 -21 105 -28 289 -30 384 -4 36 10 81 20 100
23 32 4 49 16 50 35 0 4 -120 7 -266 7 -247 0 -265 1 -262 18 3 16 25 17 271
20 l267 2 0 25 0 25 -270 0 c-263 0 -270 0 -270 20 0 19 7 20 266 20 239 0
266 2 260 16 -3 9 -6 18 -6 20 0 2 -13 4 -28 4 -16 0 -64 9 -107 20 -94 24
-268 26 -360 4z"/>
</g>
</svg>
